<?xml version="1.0" encoding="UTF-8" standalone="no"?>
<!-- Created with Inkscape (http://www.inkscape.org/) -->

<svg
   width="231.72882mm"
   height="243.94318mm"
   viewBox="0 0 231.72882 243.94317"
   version="1.1"
   id="svg1"
   xml:space="preserve"
   inkscape:version="1.4 (e7c3feb1, 2024-10-09)"
   sodipodi:docname="heftie_logo.svg"
   inkscape:export-filename="heftie_logo.png"
   inkscape:export-xdpi="96"
   inkscape:export-ydpi="96"
   xmlns:inkscape="http://www.inkscape.org/namespaces/inkscape"
   xmlns:sodipodi="http://sodipodi.sourceforge.net/DTD/sodipodi-0.dtd"
   xmlns="http://www.w3.org/2000/svg"
   xmlns:svg="http://www.w3.org/2000/svg"><sodipodi:namedview
     id="namedview1"
     pagecolor="#ffffff"
     bordercolor="#999999"
     borderopacity="1"
     inkscape:showpageshadow="2"
     inkscape:pageopacity="0"
     inkscape:pagecheckerboard="0"
     inkscape:deskcolor="#d1d1d1"
     inkscape:document-units="mm"
     showgrid="false"
     inkscape:zoom="0.50001947"
     inkscape:cx="353.98622"
     inkscape:cy="351.98629"
     inkscape:window-width="1112"
     inkscape:window-height="891"
     inkscape:window-x="0"
     inkscape:window-y="37"
     inkscape:window-maximized="0"
     inkscape:current-layer="layer1" /><defs
     id="defs1"><inkscape:path-effect
       effect="fill_between_many"
       method="originald"
       linkedpaths="#path10,0,1"
       id="path-effect1"
       is_visible="true"
       lpeversion="0"
       join="true"
       close="true"
       autoreverse="true" /><style
       type="text/css"
       id="style1">*{stroke-linejoin: round; stroke-linecap: butt}</style><clipPath
       id="p878a0522f9"><rect
         x="103.104"
         y="41.472"
         width="266.112"
         height="266.112"
         id="rect8" /></clipPath><clipPath
       id="p878a0522f9-4"><rect
         x="103.104"
         y="41.472"
         width="266.112"
         height="266.112"
         id="rect8-0" /></clipPath><clipPath
       id="clipPath1"><rect
         x="103.104"
         y="41.472"
         width="266.112"
         height="266.112"
         id="rect1" /></clipPath><clipPath
       id="clipPath2"><rect
         x="103.104"
         y="41.472"
         width="266.112"
         height="266.112"
         id="rect2" /></clipPath><clipPath
       id="clipPath3"><rect
         x="103.104"
         y="41.472"
         width="266.112"
         height="266.112"
         id="rect3" /></clipPath><clipPath
       id="clipPath4"><rect
         x="103.104"
         y="41.472"
         width="266.112"
         height="266.112"
         id="rect4" /></clipPath><clipPath
       id="clipPath5"><rect
         x="103.104"
         y="41.472"
         width="266.112"
         height="266.112"
         id="rect5" /></clipPath><style
       type="text/css"
       id="style1-4">*{stroke-linejoin: round; stroke-linecap: butt}</style><clipPath
       id="pac413a4876"><rect
         x="103.104"
         y="41.472"
         width="266.112"
         height="266.112"
         id="rect8-8" /></clipPath><clipPath
       id="pac413a4876-5"><rect
         x="103.104"
         y="41.472"
         width="266.112"
         height="266.112"
         id="rect8-8-1" /></clipPath><clipPath
       id="clipPath1-3"><rect
         x="103.104"
         y="41.472"
         width="266.112"
         height="266.112"
         id="rect1-9" /></clipPath><clipPath
       id="clipPath2-7"><rect
         x="103.104"
         y="41.472"
         width="266.112"
         height="266.112"
         id="rect2-3" /></clipPath><clipPath
       id="clipPath3-7"><rect
         x="103.104"
         y="41.472"
         width="266.112"
         height="266.112"
         id="rect3-5" /></clipPath><clipPath
       id="clipPath4-0"><rect
         x="103.104"
         y="41.472"
         width="266.112"
         height="266.112"
         id="rect4-2" /></clipPath><clipPath
       id="clipPath5-1"><rect
         x="103.104"
         y="41.472"
         width="266.112"
         height="266.112"
         id="rect5-8" /></clipPath><clipPath
       id="pac413a4876-55"><rect
         x="103.104"
         y="41.472"
         width="266.112"
         height="266.112"
         id="rect8-8-6" /></clipPath><clipPath
       id="clipPath1-32"><rect
         x="103.104"
         y="41.472"
         width="266.112"
         height="266.112"
         id="rect1-6" /></clipPath><clipPath
       id="clipPath2-8"><rect
         x="103.104"
         y="41.472"
         width="266.112"
         height="266.112"
         id="rect2-9" /></clipPath><clipPath
       id="clipPath3-1"><rect
         x="103.104"
         y="41.472"
         width="266.112"
         height="266.112"
         id="rect3-4" /></clipPath><clipPath
       id="clipPath4-8"><rect
         x="103.104"
         y="41.472"
         width="266.112"
         height="266.112"
         id="rect4-8" /></clipPath><clipPath
       id="clipPath5-7"><rect
         x="103.104"
         y="41.472"
         width="266.112"
         height="266.112"
         id="rect5-1" /></clipPath><style
       type="text/css"
       id="style1-9">*{stroke-linejoin: round; stroke-linecap: butt}</style><clipPath
       id="pfb9ea09ee9"><rect
         x="103.104"
         y="41.472"
         width="266.112"
         height="266.112"
         id="rect8-80" /></clipPath><style
       type="text/css"
       id="style1-8">*{stroke-linejoin: round; stroke-linecap: butt}</style><clipPath
       id="pfb9ea09ee9-2"><rect
         x="103.104"
         y="41.472"
         width="266.112"
         height="266.112"
         id="rect8-4" /></clipPath><clipPath
       id="pfb9ea09ee9-2-9"><rect
         x="103.104"
         y="41.472"
         width="266.112"
         height="266.112"
         id="rect8-4-0" /></clipPath><clipPath
       id="clipPath1-5"><rect
         x="103.104"
         y="41.472"
         width="266.112"
         height="266.112"
         id="rect1-2" /></clipPath><clipPath
       id="clipPath2-2"><rect
         x="103.104"
         y="41.472"
         width="266.112"
         height="266.112"
         id="rect2-7" /></clipPath><clipPath
       id="clipPath3-3"><rect
         x="103.104"
         y="41.472"
         width="266.112"
         height="266.112"
         id="rect3-7" /></clipPath><clipPath
       id="clipPath4-9"><rect
         x="103.104"
         y="41.472"
         width="266.112"
         height="266.112"
         id="rect4-0" /></clipPath><clipPath
       id="clipPath5-2"><rect
         x="103.104"
         y="41.472"
         width="266.112"
         height="266.112"
         id="rect5-3" /></clipPath><clipPath
       id="pfb9ea09ee9-2-1"><rect
         x="103.104"
         y="41.472"
         width="266.112"
         height="266.112"
         id="rect8-4-7" /></clipPath><clipPath
       id="clipPath1-2"><rect
         x="103.104"
         y="41.472"
         width="266.112"
         height="266.112"
         id="rect1-3" /></clipPath><clipPath
       id="clipPath2-6"><rect
         x="103.104"
         y="41.472"
         width="266.112"
         height="266.112"
         id="rect2-5" /></clipPath><clipPath
       id="clipPath3-5"><rect
         x="103.104"
         y="41.472"
         width="266.112"
         height="266.112"
         id="rect3-8" /></clipPath><clipPath
       id="clipPath4-1"><rect
         x="103.104"
         y="41.472"
         width="266.112"
         height="266.112"
         id="rect4-4" /></clipPath><clipPath
       id="clipPath5-71"><rect
         x="103.104"
         y="41.472"
         width="266.112"
         height="266.112"
         id="rect5-38" /></clipPath><clipPath
       id="pfb9ea09ee9-2-1-3"><rect
         x="103.104"
         y="41.472"
         width="266.112"
         height="266.112"
         id="rect8-4-7-8" /></clipPath><clipPath
       id="clipPath1-1"><rect
         x="103.104"
         y="41.472"
         width="266.112"
         height="266.112"
         id="rect1-5" /></clipPath><clipPath
       id="clipPath2-3"><rect
         x="103.104"
         y="41.472"
         width="266.112"
         height="266.112"
         id="rect2-54" /></clipPath><clipPath
       id="clipPath3-36"><rect
         x="103.104"
         y="41.472"
         width="266.112"
         height="266.112"
         id="rect3-59" /></clipPath><clipPath
       id="clipPath4-5"><rect
         x="103.104"
         y="41.472"
         width="266.112"
         height="266.112"
         id="rect4-49" /></clipPath><clipPath
       id="clipPath5-17"><rect
         x="103.104"
         y="41.472"
         width="266.112"
         height="266.112"
         id="rect5-5" /></clipPath><clipPath
       id="pfb9ea09ee9-2-17"><rect
         x="103.104"
         y="41.472"
         width="266.112"
         height="266.112"
         id="rect8-4-1" /></clipPath><clipPath
       id="clipPath1-8"><rect
         x="103.104"
         y="41.472"
         width="266.112"
         height="266.112"
         id="rect1-7" /></clipPath><clipPath
       id="clipPath2-87"><rect
         x="103.104"
         y="41.472"
         width="266.112"
         height="266.112"
         id="rect2-74" /></clipPath><clipPath
       id="clipPath3-4"><rect
         x="103.104"
         y="41.472"
         width="266.112"
         height="266.112"
         id="rect3-9" /></clipPath><clipPath
       id="clipPath4-15"><rect
         x="103.104"
         y="41.472"
         width="266.112"
         height="266.112"
         id="rect4-5" /></clipPath><clipPath
       id="clipPath5-5"><rect
         x="103.104"
         y="41.472"
         width="266.112"
         height="266.112"
         id="rect5-82" /></clipPath><clipPath
       id="pfb9ea09ee9-2-17-2"><rect
         x="103.104"
         y="41.472"
         width="266.112"
         height="266.112"
         id="rect8-4-1-7" /></clipPath><clipPath
       id="clipPath1-15"><rect
         x="103.104"
         y="41.472"
         width="266.112"
         height="266.112"
         id="rect1-21" /></clipPath><clipPath
       id="clipPath2-1"><rect
         x="103.104"
         y="41.472"
         width="266.112"
         height="266.112"
         id="rect2-0" /></clipPath><clipPath
       id="clipPath3-18"><rect
         x="103.104"
         y="41.472"
         width="266.112"
         height="266.112"
         id="rect3-76" /></clipPath><clipPath
       id="clipPath4-00"><rect
         x="103.104"
         y="41.472"
         width="266.112"
         height="266.112"
         id="rect4-9" /></clipPath><clipPath
       id="clipPath5-56"><rect
         x="103.104"
         y="41.472"
         width="266.112"
         height="266.112"
         id="rect5-2" /></clipPath><style
       type="text/css"
       id="style1-0">*{stroke-linejoin: round; stroke-linecap: butt}</style><clipPath
       id="p5ddd207565"><rect
         x="7.1999998"
         y="7.1999998"
         width="266.112"
         height="266.112"
         id="rect8-2" /></clipPath><clipPath
       id="p5ddd207565-8"><rect
         x="7.1999998"
         y="7.1999998"
         width="266.112"
         height="266.112"
         id="rect8-2-5" /></clipPath><clipPath
       id="clipPath1-55"><rect
         x="7.1999998"
         y="7.1999998"
         width="266.112"
         height="266.112"
         id="rect1-4" /></clipPath><clipPath
       id="clipPath2-21"><rect
         x="7.1999998"
         y="7.1999998"
         width="266.112"
         height="266.112"
         id="rect2-92" /></clipPath><clipPath
       id="clipPath3-45"><rect
         x="7.1999998"
         y="7.1999998"
         width="266.112"
         height="266.112"
         id="rect3-86" /></clipPath><clipPath
       id="clipPath4-2"><rect
         x="7.1999998"
         y="7.1999998"
         width="266.112"
         height="266.112"
         id="rect4-51" /></clipPath><clipPath
       id="clipPath5-3"><rect
         x="7.1999998"
         y="7.1999998"
         width="266.112"
         height="266.112"
         id="rect5-9" /></clipPath><clipPath
       id="p5ddd207565-8-5"><rect
         x="7.1999998"
         y="7.1999998"
         width="266.112"
         height="266.112"
         id="rect8-2-5-8" /></clipPath><clipPath
       id="clipPath1-56"><rect
         x="7.1999998"
         y="7.1999998"
         width="266.112"
         height="266.112"
         id="rect1-79" /></clipPath><clipPath
       id="clipPath2-4"><rect
         x="7.1999998"
         y="7.1999998"
         width="266.112"
         height="266.112"
         id="rect2-1" /></clipPath><clipPath
       id="clipPath3-6"><rect
         x="7.1999998"
         y="7.1999998"
         width="266.112"
         height="266.112"
         id="rect3-1" /></clipPath><clipPath
       id="clipPath4-20"><rect
         x="7.1999998"
         y="7.1999998"
         width="266.112"
         height="266.112"
         id="rect4-44" /></clipPath><clipPath
       id="clipPath5-59"><rect
         x="7.1999998"
         y="7.1999998"
         width="266.112"
         height="266.112"
         id="rect5-7" /></clipPath><style
       type="text/css"
       id="style1-90">*{stroke-linejoin: round; stroke-linecap: butt}</style><clipPath
       id="p00c108a249"><rect
         x="7.2"
         y="7.2"
         width="266.112"
         height="266.112"
         id="rect8-3" /></clipPath><style
       type="text/css"
       id="style1-1">*{stroke-linejoin: round; stroke-linecap: butt}</style><clipPath
       id="p00c108a249-2"><rect
         x="7.2"
         y="7.2"
         width="266.112"
         height="266.112"
         id="rect8-36" /></clipPath><clipPath
       id="p00c108a249-2-8"><rect
         x="7.1999998"
         y="7.1999998"
         width="266.112"
         height="266.112"
         id="rect8-36-1" /></clipPath><clipPath
       id="clipPath1-4"><rect
         x="7.1999998"
         y="7.1999998"
         width="266.112"
         height="266.112"
         id="rect1-71" /></clipPath><clipPath
       id="clipPath2-38"><rect
         x="7.1999998"
         y="7.1999998"
         width="266.112"
         height="266.112"
         id="rect2-4" /></clipPath><clipPath
       id="clipPath3-8"><rect
         x="7.1999998"
         y="7.1999998"
         width="266.112"
         height="266.112"
         id="rect3-0" /></clipPath><clipPath
       id="clipPath4-4"><rect
         x="7.1999998"
         y="7.1999998"
         width="266.112"
         height="266.112"
         id="rect4-6" /></clipPath><clipPath
       id="clipPath5-0"><rect
         x="7.1999998"
         y="7.1999998"
         width="266.112"
         height="266.112"
         id="rect5-32" /></clipPath><clipPath
       id="p00c108a249-2-8-6"><rect
         x="7.1999998"
         y="7.1999998"
         width="266.112"
         height="266.112"
         id="rect8-36-1-5" /></clipPath><clipPath
       id="clipPath1-9"><rect
         x="7.1999998"
         y="7.1999998"
         width="266.112"
         height="266.112"
         id="rect1-54" /></clipPath><clipPath
       id="clipPath2-9"><rect
         x="7.1999998"
         y="7.1999998"
         width="266.112"
         height="266.112"
         id="rect2-17" /></clipPath><clipPath
       id="clipPath3-55"><rect
         x="7.1999998"
         y="7.1999998"
         width="266.112"
         height="266.112"
         id="rect3-41" /></clipPath><clipPath
       id="clipPath4-88"><rect
         x="7.1999998"
         y="7.1999998"
         width="266.112"
         height="266.112"
         id="rect4-3" /></clipPath><clipPath
       id="clipPath5-52"><rect
         x="7.1999998"
         y="7.1999998"
         width="266.112"
         height="266.112"
         id="rect5-26" /></clipPath><clipPath
       id="p00c108a249-2-8-6-2"><rect
         x="7.1999998"
         y="7.1999998"
         width="266.112"
         height="266.112"
         id="rect8-36-1-5-9" /></clipPath><clipPath
       id="clipPath1-82"><rect
         x="7.1999998"
         y="7.1999998"
         width="266.112"
         height="266.112"
         id="rect1-0" /></clipPath><clipPath
       id="clipPath2-74"><rect
         x="7.1999998"
         y="7.1999998"
         width="266.112"
         height="266.112"
         id="rect2-8" /></clipPath><clipPath
       id="clipPath3-58"><rect
         x="7.1999998"
         y="7.1999998"
         width="266.112"
         height="266.112"
         id="rect3-3" /></clipPath><clipPath
       id="clipPath4-06"><rect
         x="7.1999998"
         y="7.1999998"
         width="266.112"
         height="266.112"
         id="rect4-22" /></clipPath><clipPath
       id="clipPath5-522"><rect
         x="7.1999998"
         y="7.1999998"
         width="266.112"
         height="266.112"
         id="rect5-71" /></clipPath><clipPath
       id="p00c108a249-2-8-6-2-5"><rect
         x="7.1999998"
         y="7.1999998"
         width="266.112"
         height="266.112"
         id="rect8-36-1-5-9-9" /></clipPath><clipPath
       id="clipPath1-43"><rect
         x="7.1999998"
         y="7.1999998"
         width="266.112"
         height="266.112"
         id="rect1-90" /></clipPath><clipPath
       id="clipPath2-5"><rect
         x="7.1999998"
         y="7.1999998"
         width="266.112"
         height="266.112"
         id="rect2-6" /></clipPath><clipPath
       id="clipPath3-363"><rect
         x="7.1999998"
         y="7.1999998"
         width="266.112"
         height="266.112"
         id="rect3-08" /></clipPath><clipPath
       id="clipPath4-40"><rect
         x="7.1999998"
         y="7.1999998"
         width="266.112"
         height="266.112"
         id="rect4-46" /></clipPath><clipPath
       id="clipPath5-4"><rect
         x="7.1999998"
         y="7.1999998"
         width="266.112"
         height="266.112"
         id="rect5-6" /></clipPath></defs><g
     inkscape:groupmode="layer"
     id="layer3"
     inkscape:label="Cubes"
     transform="translate(2.0786808,-64.428659)"><g
       id="figure_1-9-7"
       transform="matrix(0.13894487,0.04341813,-0.04341813,0.13894487,190.4631,82.147245)"
       style="stroke-width:17.17379287;stroke-linecap:butt;stroke-linejoin:round;stroke-dasharray:none"><g
         id="patch_1-4-8"
         style="stroke-width:17.17379287;stroke-linecap:butt;stroke-linejoin:round;stroke-dasharray:none"><path
           d="M 0,280.512 H 280.512 V 0 H 0 Z"
           style="fill:none;stroke-width:17.17379287;stroke-linecap:butt;stroke-linejoin:round;stroke-dasharray:none"
           id="path1-7-1-4" /></g><g
         id="patch_2-3-1"
         style="stroke-width:17.17379287;stroke-linecap:butt;stroke-linejoin:round;stroke-dasharray:none"><path
           d="M 7.2,273.312 H 273.312 V 7.2 H 7.2 Z"
           style="fill:none;stroke-width:17.17379287;stroke-linecap:butt;stroke-linejoin:round;stroke-dasharray:none"
           id="path2-7-7" /></g><g
         id="axes_1-8-1"
         style="stroke-width:17.17379287;stroke-linecap:butt;stroke-linejoin:round;stroke-dasharray:none"><g
           id="Poly3DCollection_1-8-8"
           style="stroke-width:17.17379287;stroke-linecap:butt;stroke-linejoin:round;stroke-dasharray:none"><path
             d="M 119.81084,148.68052 237.26946,183.36857 241.93237,61.33923 118.66055,30.047936 Z"
             clip-path="url(#p00c108a249-2-8-6)"
             style="fill:#d62728;stroke:#000000;stroke-width:17.17379287;stroke-linecap:butt;stroke-linejoin:round;stroke-dasharray:none"
             id="path3-3-7" /><path
             d="M 170.80532,250.72725 237.26946,183.36857 119.81084,148.68052 47.531628,210.62913 Z"
             clip-path="url(#p00c108a249-2-8-6)"
             style="fill:#d62728;stroke:#000000;stroke-width:17.17379287;stroke-linecap:butt;stroke-linejoin:round;stroke-dasharray:none"
             id="path4-8-8" /><path
             d="M 119.81084,148.68052 118.66055,30.047936 42.566687,86.017182 47.531628,210.62913 Z"
             clip-path="url(#p00c108a249-2-8-6)"
             style="fill:#d62728;stroke:#000000;stroke-width:17.17379287;stroke-linecap:butt;stroke-linejoin:round;stroke-dasharray:none"
             id="path5-1-7" /><path
             d="m 170.80532,250.72725 1.45425,-128.27109 69.6728,-61.11693 -4.66291,122.02934 z"
             clip-path="url(#p00c108a249-2-8-6)"
             style="fill:#d62728;stroke:#000000;stroke-width:17.17379287;stroke-linecap:butt;stroke-linejoin:round;stroke-dasharray:none"
             id="path6-5-7" /><path
             d="M 42.566687,86.017182 118.66055,30.047936 241.93237,61.33923 172.25957,122.45616 Z"
             clip-path="url(#p00c108a249-2-8-6)"
             style="fill:#d62728;stroke:#000000;stroke-width:17.17379287;stroke-linecap:butt;stroke-linejoin:round;stroke-dasharray:none"
             id="path7-3-4" /><path
             d="M 42.566687,86.017182 172.25957,122.45616 170.80532,250.72725 47.531628,210.62913 Z"
             clip-path="url(#p00c108a249-2-8-6)"
             style="fill:#d62728;stroke:#000000;stroke-width:17.17379287;stroke-linecap:butt;stroke-linejoin:round;stroke-dasharray:none"
             id="path8-5-4" /></g></g></g><g
       id="figure_1-9-7-2"
       transform="matrix(0.14067905,0.03741945,-0.03741945,0.14067905,184.4304,139.00552)"
       style="stroke-width:17.1737931;stroke-linecap:butt;stroke-linejoin:round;stroke-dasharray:none"><g
         id="patch_1-4-8-1"
         style="stroke-width:17.1737931;stroke-linecap:butt;stroke-linejoin:round;stroke-dasharray:none"><path
           d="M 0,280.512 H 280.512 V 0 H 0 Z"
           style="fill:none;stroke-width:17.1737931;stroke-linecap:butt;stroke-linejoin:round;stroke-dasharray:none"
           id="path1-7-1-4-1" /></g><g
         id="patch_2-3-1-0"
         style="stroke-width:17.1737931;stroke-linecap:butt;stroke-linejoin:round;stroke-dasharray:none"><path
           d="M 7.2,273.312 H 273.312 V 7.2 H 7.2 Z"
           style="fill:none;stroke-width:17.1737931;stroke-linecap:butt;stroke-linejoin:round;stroke-dasharray:none"
           id="path2-7-7-1" /></g><g
         id="axes_1-8-1-8"
         style="stroke-width:17.1737931;stroke-linecap:butt;stroke-linejoin:round;stroke-dasharray:none"><g
           id="Poly3DCollection_1-8-8-7"
           style="stroke-width:17.1737931;stroke-linecap:butt;stroke-linejoin:round;stroke-dasharray:none"><path
             d="M 119.81084,148.68052 237.26946,183.36857 241.93237,61.33923 118.66055,30.047936 Z"
             clip-path="url(#p00c108a249-2-8-6-2)"
             style="fill:#d62728;stroke:#000000;stroke-width:17.1737931;stroke-linecap:butt;stroke-linejoin:round;stroke-dasharray:none"
             id="path3-3-7-6" /><path
             d="M 170.80532,250.72725 237.26946,183.36857 119.81084,148.68052 47.531628,210.62913 Z"
             clip-path="url(#p00c108a249-2-8-6-2)"
             style="fill:#d62728;stroke:#000000;stroke-width:17.1737931;stroke-linecap:butt;stroke-linejoin:round;stroke-dasharray:none"
             id="path4-8-8-0" /><path
             d="M 119.81084,148.68052 118.66055,30.047936 42.566687,86.017182 47.531628,210.62913 Z"
             clip-path="url(#p00c108a249-2-8-6-2)"
             style="fill:#d62728;stroke:#000000;stroke-width:17.1737931;stroke-linecap:butt;stroke-linejoin:round;stroke-dasharray:none"
             id="path5-1-7-0" /><path
             d="m 170.80532,250.72725 1.45425,-128.27109 69.6728,-61.11693 -4.66291,122.02934 z"
             clip-path="url(#p00c108a249-2-8-6-2)"
             style="fill:#d62728;stroke:#000000;stroke-width:17.1737931;stroke-linecap:butt;stroke-linejoin:round;stroke-dasharray:none"
             id="path6-5-7-9" /><path
             d="M 42.566687,86.017182 118.66055,30.047936 241.93237,61.33923 172.25957,122.45616 Z"
             clip-path="url(#p00c108a249-2-8-6-2)"
             style="fill:#d62728;stroke:#000000;stroke-width:17.1737931;stroke-linecap:butt;stroke-linejoin:round;stroke-dasharray:none"
             id="path7-3-4-5" /><path
             d="M 42.566687,86.017182 172.25957,122.45616 170.80532,250.72725 47.531628,210.62913 Z"
             clip-path="url(#p00c108a249-2-8-6-2)"
             style="fill:#d62728;stroke:#000000;stroke-width:17.1737931;stroke-linecap:butt;stroke-linejoin:round;stroke-dasharray:none"
             id="path8-5-4-6" /></g></g></g><g
       id="figure_1-9-7-2-3"
       transform="matrix(0.1288101,-0.06781421,0.06781421,0.1288101,151.23977,127.29873)"
       style="stroke-width:17.17379367;stroke-linecap:butt;stroke-linejoin:round;stroke-dasharray:none"><g
         id="patch_1-4-8-1-8"
         style="stroke-width:17.17379367;stroke-linecap:butt;stroke-linejoin:round;stroke-dasharray:none"><path
           d="M 0,280.512 H 280.512 V 0 H 0 Z"
           style="fill:none;stroke-width:17.17379367;stroke-linecap:butt;stroke-linejoin:round;stroke-dasharray:none"
           id="path1-7-1-4-1-4" /></g><g
         id="patch_2-3-1-0-0"
         style="stroke-width:17.17379367;stroke-linecap:butt;stroke-linejoin:round;stroke-dasharray:none"><path
           d="M 7.2,273.312 H 273.312 V 7.2 H 7.2 Z"
           style="fill:none;stroke-width:17.17379367;stroke-linecap:butt;stroke-linejoin:round;stroke-dasharray:none"
           id="path2-7-7-1-0" /></g><g
         id="axes_1-8-1-8-9"
         style="stroke-width:17.17379367;stroke-linecap:butt;stroke-linejoin:round;stroke-dasharray:none"><g
           id="Poly3DCollection_1-8-8-7-3"
           style="stroke-width:17.17379367;stroke-linecap:butt;stroke-linejoin:round;stroke-dasharray:none"><path
             d="M 119.81084,148.68052 237.26946,183.36857 241.93237,61.33923 118.66055,30.047936 Z"
             clip-path="url(#p00c108a249-2-8-6-2-5)"
             style="fill:#d62728;stroke:#000000;stroke-width:17.17379367;stroke-linecap:butt;stroke-linejoin:round;stroke-dasharray:none"
             id="path3-3-7-6-7" /><path
             d="M 170.80532,250.72725 237.26946,183.36857 119.81084,148.68052 47.531628,210.62913 Z"
             clip-path="url(#p00c108a249-2-8-6-2-5)"
             style="fill:#d62728;stroke:#000000;stroke-width:17.17379367;stroke-linecap:butt;stroke-linejoin:round;stroke-dasharray:none"
             id="path4-8-8-0-5" /><path
             d="M 119.81084,148.68052 118.66055,30.047936 42.566687,86.017182 47.531628,210.62913 Z"
             clip-path="url(#p00c108a249-2-8-6-2-5)"
             style="fill:#d62728;stroke:#000000;stroke-width:17.17379367;stroke-linecap:butt;stroke-linejoin:round;stroke-dasharray:none"
             id="path5-1-7-0-7" /><path
             d="m 170.80532,250.72725 1.45425,-128.27109 69.6728,-61.11693 -4.66291,122.02934 z"
             clip-path="url(#p00c108a249-2-8-6-2-5)"
             style="fill:#d62728;stroke:#000000;stroke-width:17.17379367;stroke-linecap:butt;stroke-linejoin:round;stroke-dasharray:none"
             id="path6-5-7-9-2" /><path
             d="M 42.566687,86.017182 118.66055,30.047936 241.93237,61.33923 172.25957,122.45616 Z"
             clip-path="url(#p00c108a249-2-8-6-2-5)"
             style="fill:#d62728;stroke:#000000;stroke-width:17.17379367;stroke-linecap:butt;stroke-linejoin:round;stroke-dasharray:none"
             id="path7-3-4-5-9" /><path
             d="M 42.566687,86.017182 172.25957,122.45616 170.80532,250.72725 47.531628,210.62913 Z"
             clip-path="url(#p00c108a249-2-8-6-2-5)"
             style="fill:#d62728;stroke:#000000;stroke-width:17.17379367;stroke-linecap:butt;stroke-linejoin:round;stroke-dasharray:none"
             id="path8-5-4-6-7" /></g></g></g></g><g
     inkscape:groupmode="layer"
     id="layer2"
     inkscape:label="Drawing"
     transform="translate(2.0786808,-64.428659)"><path
       inkscape:original-d="M 0,0"
       inkscape:path-effect="#path-effect1"
       d="m 100,215 v -30 c 0,0 -19.976572,12.04905 -50,0 v 30 H 25 v -33.18797 c -0.04455,7.0071 -8.010672,2.45683 -8.010672,2.45683 0,0 -13.5043377,-81.02602 55.759846,-91.045368 0,0 19.167447,-18.731823 46.176126,-13.068714 0,0 40.02836,8.253159 40.07738,37.028022 l -4.12602,66.79449 c 0,0 -0.65642,28.5365 19.37286,-6.50171 l 10.13146,3.50348 c 0,0 -17.41706,49.94323 -40.63954,20.17131 0,0 -6.57354,-6.57354 -6.1353,-29.80005 0,0 -2.19118,-0.43824 -12.27061,-10.07943 L 125.77376,215 Z"
       id="path1"
       style="fill:#74e3db;fill-opacity:1" /><path
       style="fill:#cccccc;fill-opacity:0.93;stroke:#000000;stroke-width:2.5;stroke-linecap:round;stroke-linejoin:round;stroke-miterlimit:30;stroke-dasharray:none;stroke-opacity:1"
       d="m 100,215 v -30 c 0,0 -19.976572,12.04905 -50,0 v 30 H 25 v -33.18797 c -0.04455,7.0071 -8.010672,2.45683 -8.010672,2.45683 0,0 -13.5043377,-81.02602 55.759846,-91.045368 0,0 19.167447,-18.731823 46.176126,-13.068714 0,0 40.02836,8.253159 40.07738,37.028022 l -4.12602,66.79449 c 0,0 -0.65642,28.5365 19.37286,-6.50171 l 10.13146,3.50348 c 0,0 -17.41706,49.94323 -40.63954,20.17131 0,0 -6.57354,-6.57354 -6.1353,-29.80005 0,0 -2.19118,-0.43824 -12.27061,-10.07943 L 125.77376,215 H 100"
       id="path10"
       sodipodi:nodetypes="cccccccccccccccccc"
       inkscape:label="path10" /><path
       style="fill:none;stroke:#000000;stroke-width:3;stroke-linecap:round;stroke-linejoin:round;stroke-miterlimit:30;stroke-dasharray:none;stroke-opacity:1"
       d="m 128.40318,93.782524 c 0,0 -10.3248,-23.217195 -45.300935,-7.867126 -34.976141,15.350072 2.67067,64.837822 20.479915,59.140752"
       id="path12" /><ellipse
       style="fill:#28170b;fill-opacity:1;stroke:#000000;stroke-width:1.07598;stroke-linecap:round;stroke-linejoin:round;stroke-miterlimit:30;stroke-dasharray:none;stroke-opacity:1"
       id="path13"
       cx="140.77245"
       cy="115.43572"
       rx="2.4620142"
       ry="2.4620118" /></g><g
     inkscape:groupmode="layer"
     id="layer4"
     inkscape:label="Cubes 1"
     style="fill:none;stroke:#000002;stroke-width:5;stroke-dasharray:none;stroke-opacity:1"
     transform="translate(14.078359,13.998624)" /><g
     inkscape:groupmode="layer"
     id="layer1"
     inkscape:label="Text"><path
       style="font-size:95.9665px;line-height:0;font-family:Asteristico;-inkscape-font-specification:Asteristico;letter-spacing:0px;fill:#3b84ba;stroke:#000000;stroke-width:2.5;stroke-miterlimit:30"
       d="m 51.652722,227.57629 q 1.63143,0.76773 1.439497,2.49513 l -12.859511,61.22663 q -0.479832,1.72739 -2.111263,1.82336 l -6.237822,0.096 q -1.823364,0 -2.20723,-1.63143 -0.09597,-0.5758 -0.09597,-1.05563 l 3.262861,-13.62725 h -7.389421 l -2.878995,13.81918 q -0.479832,1.7274 -2.111263,1.82336 l -6.237822,0.096 q -1.151598,0 -1.823363,-0.76773 -0.671766,-0.8637 -0.479833,-1.91933 l 14.586908,-61.80243 q 0.575799,-2.0153 2.974961,-1.63143 l 4.510426,0.47983 q 1.63143,0.76774 1.439497,2.49513 l -8.061186,38.29064 7.67732,-0.096 9.116818,-38.9624 q 0.575799,-2.0153 2.974961,-1.63143 z m 36.563322,-0.8637 q 2.111263,0 2.687062,1.82337 0.191933,0.67176 0.09597,1.34353 l -0.863699,3.83866 q -0.479832,1.53546 -2.111263,1.53546 l -18.041702,0.38387 q 0.383866,0.38386 0.671766,0.47983 1.535464,1.34353 1.727397,2.39916 0.09597,0.95967 -0.191933,2.3032 l -5.662024,27.73432 12.187746,-0.47983 q 2.015296,0 2.687062,1.82336 0.191933,0.67176 0.09597,1.34353 l -0.863698,4.12656 q -0.479833,1.63143 -2.111263,1.63143 l -13.72321,0.2879 -1.439497,6.90959 15.35464,-0.5758 q 2.015296,0 2.687062,1.82336 0.191933,0.67177 0.09597,1.24757 l -0.863698,4.22252 q -0.479833,1.53547 -2.111263,1.63143 l -19.289267,0.38387 q -0.767732,-0.096 -1.343531,-0.47983 l -0.09597,-0.096 -3.358828,-2.11126 q -1.535464,-1.05563 -1.247564,-2.97496 l 11.707913,-53.64528 v -0.096 q 0,-0.096 0,-0.096 l 0.767732,-4.60639 q 0.383866,-1.63143 2.111263,-1.7274 z m 29.365746,49.32678 q -0.47983,1.91933 -2.20723,2.0153 -0.096,0 -13.53128,0.76773 l -2.687059,13.05145 q -0.383866,2.11126 -2.495129,2.30319 -1.055631,0.096 -1.91933,-0.38386 l -3.454794,-2.20723 q -1.63143,-1.1516 -1.247564,-3.07093 l 11.515976,-52.87754 q -0.95966,-1.05563 -0.86369,-2.39916 l 0.76773,-4.79833 q 0.47983,-1.53546 2.20723,-1.7274 l 21.01666,-0.38386 q 2.11126,0 2.78303,1.91933 0.19193,0.67176 0.096,1.34353 l -0.76773,3.64673 q -0.5758,1.82336 -2.30319,1.91933 -0.19194,0 -14.01111,0.47983 -0.096,0.76773 -0.19194,1.63143 l -6.52572,32.05281 11.80388,-0.47983 q 2.20723,0 2.78303,1.91933 0.19193,0.67176 0.096,1.24756 z m 39.44222,-49.61468 q 2.11126,0 2.68706,1.91933 0.096,0.38387 0.096,0.67177 0,0.38387 0,0.5758 l -0.8637,3.55076 q -0.47983,1.63143 -2.11127,1.63143 h -8.44505 q 1.05563,0.95966 1.1516,2.3032 -0.096,0.47983 -0.096,0.86369 l -9.21278,52.58965 q -0.8637,2.11126 -2.97496,2.39916 -0.8637,0 -1.4395,-0.38387 l -3.83866,-2.39916 q -1.34353,-0.8637 -1.34353,-2.39916 0,-0.2879 0.096,-0.5758 l 11.32404,-52.30174 -6.33378,0.096 q -1.7274,0 -2.20723,-1.53546 -0.096,-0.2879 -0.096,-0.47983 0,-0.19194 0.096,-0.2879 l 0.76773,-4.3185 q 0.47983,-1.43949 2.11126,-1.72739 z m 3.83874,66.12092 q -2.68706,0 -3.74269,-2.59109 -0.38387,-1.1516 -0.19193,-2.3032 l 11.22808,-59.40326 q 0.5758,-1.7274 2.30319,-1.82337 h 4.41446 q 1.7274,0 2.20723,1.7274 0.19194,0.5758 0.096,1.05563 l -9.78858,60.7468 q -0.2879,2.11126 -2.39917,2.49513 -0.38386,0.096 -0.5758,0.096 z m 52.01376,-65.83302 q 2.11126,0 2.68706,1.82337 0.19193,0.67176 0.096,1.34353 l -0.8637,3.83866 q -0.47983,1.53546 -2.11126,1.53546 l -18.04171,0.38387 q 0.38387,0.38386 0.67177,0.47983 1.53546,1.34353 1.7274,2.39916 0.096,0.95967 -0.19194,2.3032 l -5.66202,27.73432 12.18775,-0.47983 q 2.01529,0 2.68706,1.82336 0.19193,0.67176 0.096,1.34353 l -0.86369,4.12656 q -0.47984,1.63143 -2.11127,1.63143 l -13.72321,0.2879 -1.43949,6.90959 15.35464,-0.5758 q 2.01529,0 2.68706,1.82336 0.19193,0.67177 0.096,1.24757 l -0.86369,4.22252 q -0.47984,1.53547 -2.11127,1.63143 l -19.28926,0.38387 q -0.76774,-0.096 -1.34353,-0.47983 l -0.096,-0.096 -3.35883,-2.11126 q -1.53546,-1.05563 -1.24756,-2.97496 l 11.70791,-53.64528 v -0.096 q 0,-0.096 0,-0.096 l 0.76773,-4.60639 q 0.38387,-1.63143 2.11126,-1.7274 z"
       id="text13"
       transform="translate(2.0786808,-64.428658)"
       aria-label="HEFTIE" /></g></svg>
